<mxfile host="Electron" agent="Mozilla/5.0 (Windows NT 10.0; WOW64) AppleWebKit/537.36 (KHTML, like Gecko) draw.io/24.7.17 Chrome/128.0.6613.36 Electron/32.0.1 Safari/537.36" version="24.7.17">
  <diagram name="Page-1" id="Av7zBsB9UQiDPN6zRXcK">
    <mxGraphModel dx="1058" dy="1147" grid="1" gridSize="10" guides="1" tooltips="1" connect="1" arrows="1" fold="1" page="1" pageScale="1" pageWidth="850" pageHeight="1100" math="0" shadow="0">
      <root>
        <mxCell id="0" />
        <mxCell id="1" parent="0" />
        <mxCell id="WIrva2gLRy929x_mKBgo-79" value="&lt;h2 style=&quot;text-align: justify;&quot;&gt;&lt;font face=&quot;Tahoma&quot;&gt;String&lt;/font&gt;&lt;/h2&gt;" style="rounded=1;whiteSpace=wrap;html=1;shadow=1;fillColor=#B3B3B3;" vertex="1" parent="1">
          <mxGeometry x="555" y="110" width="210" height="50" as="geometry" />
        </mxCell>
        <mxCell id="WIrva2gLRy929x_mKBgo-85" value="&lt;h1 style=&quot;text-align: justify;&quot;&gt;&lt;font face=&quot;Tahoma&quot;&gt;AKUN BANK&lt;/font&gt;&lt;/h1&gt;" style="rounded=1;whiteSpace=wrap;html=1;fillColor=#EA6B66;" vertex="1" parent="1">
          <mxGeometry x="500" y="440" width="320" height="110" as="geometry" />
        </mxCell>
        <mxCell id="WIrva2gLRy929x_mKBgo-116" style="edgeStyle=orthogonalEdgeStyle;rounded=0;orthogonalLoop=1;jettySize=auto;html=1;exitX=0;exitY=0.5;exitDx=0;exitDy=0;entryX=0;entryY=0.25;entryDx=0;entryDy=0;endArrow=none;endFill=0;" edge="1" parent="1" source="WIrva2gLRy929x_mKBgo-90" target="WIrva2gLRy929x_mKBgo-79">
          <mxGeometry relative="1" as="geometry" />
        </mxCell>
        <mxCell id="WIrva2gLRy929x_mKBgo-117" style="edgeStyle=orthogonalEdgeStyle;rounded=0;orthogonalLoop=1;jettySize=auto;html=1;exitX=1;exitY=0.5;exitDx=0;exitDy=0;entryX=1;entryY=0.25;entryDx=0;entryDy=0;endArrow=none;endFill=0;" edge="1" parent="1" source="WIrva2gLRy929x_mKBgo-90" target="WIrva2gLRy929x_mKBgo-79">
          <mxGeometry relative="1" as="geometry" />
        </mxCell>
        <mxCell id="WIrva2gLRy929x_mKBgo-90" value="&lt;h2 style=&quot;text-align: justify;&quot;&gt;&lt;font face=&quot;Tahoma&quot;&gt;Menampilkan Pesan&lt;/font&gt;&lt;/h2&gt;" style="rounded=1;whiteSpace=wrap;html=1;fillColor=#FFF2CC;" vertex="1" parent="1">
          <mxGeometry x="490" y="150" width="340" height="60" as="geometry" />
        </mxCell>
        <mxCell id="WIrva2gLRy929x_mKBgo-78" value="&lt;h2 style=&quot;text-align: justify;&quot;&gt;&lt;font face=&quot;Tahoma&quot;&gt;Selamat Datang di Bank ABC&lt;/font&gt;&lt;/h2&gt;" style="rounded=1;whiteSpace=wrap;html=1;fillColor=#EA6B66;" vertex="1" parent="1">
          <mxGeometry x="490" y="200" width="340" height="60" as="geometry" />
        </mxCell>
        <mxCell id="WIrva2gLRy929x_mKBgo-93" value="&lt;h2 style=&quot;text-align: justify;&quot;&gt;&lt;font face=&quot;Tahoma&quot;&gt;Mengecek Saldo&lt;/font&gt;&lt;/h2&gt;" style="rounded=1;whiteSpace=wrap;html=1;fillColor=#FFF2CC;" vertex="1" parent="1">
          <mxGeometry x="490" y="670" width="340" height="60" as="geometry" />
        </mxCell>
        <mxCell id="WIrva2gLRy929x_mKBgo-106" style="edgeStyle=orthogonalEdgeStyle;rounded=0;orthogonalLoop=1;jettySize=auto;html=1;exitX=1;exitY=0.5;exitDx=0;exitDy=0;entryX=0;entryY=0.5;entryDx=0;entryDy=0;endArrow=none;endFill=0;" edge="1" parent="1" source="WIrva2gLRy929x_mKBgo-94" target="WIrva2gLRy929x_mKBgo-95">
          <mxGeometry relative="1" as="geometry" />
        </mxCell>
        <mxCell id="WIrva2gLRy929x_mKBgo-94" value="&lt;h2 style=&quot;text-align: justify;&quot;&gt;&lt;font face=&quot;Tahoma&quot;&gt;Ambil Uang&lt;/font&gt;&lt;/h2&gt;" style="rounded=1;whiteSpace=wrap;html=1;fillColor=#FFF2CC;" vertex="1" parent="1">
          <mxGeometry x="300" y="870" width="340" height="60" as="geometry" />
        </mxCell>
        <mxCell id="WIrva2gLRy929x_mKBgo-95" value="&lt;h2 style=&quot;text-align: justify;&quot;&gt;&lt;font face=&quot;Tahoma&quot;&gt;Simpan Uang&lt;/font&gt;&lt;/h2&gt;" style="rounded=1;whiteSpace=wrap;html=1;fillColor=#FFF2CC;" vertex="1" parent="1">
          <mxGeometry x="720" y="870" width="340" height="60" as="geometry" />
        </mxCell>
        <mxCell id="WIrva2gLRy929x_mKBgo-107" style="edgeStyle=orthogonalEdgeStyle;rounded=0;orthogonalLoop=1;jettySize=auto;html=1;exitX=0.5;exitY=1;exitDx=0;exitDy=0;entryX=0.5;entryY=0;entryDx=0;entryDy=0;endArrow=oval;endFill=1;" edge="1" parent="1" source="WIrva2gLRy929x_mKBgo-93" target="WIrva2gLRy929x_mKBgo-94">
          <mxGeometry relative="1" as="geometry" />
        </mxCell>
        <mxCell id="WIrva2gLRy929x_mKBgo-108" style="edgeStyle=orthogonalEdgeStyle;rounded=0;orthogonalLoop=1;jettySize=auto;html=1;entryX=0.5;entryY=0;entryDx=0;entryDy=0;endArrow=oval;endFill=1;" edge="1" parent="1" source="WIrva2gLRy929x_mKBgo-93" target="WIrva2gLRy929x_mKBgo-95">
          <mxGeometry relative="1" as="geometry" />
        </mxCell>
        <mxCell id="WIrva2gLRy929x_mKBgo-111" style="edgeStyle=orthogonalEdgeStyle;rounded=0;orthogonalLoop=1;jettySize=auto;html=1;exitX=0.5;exitY=1;exitDx=0;exitDy=0;entryX=0.5;entryY=0;entryDx=0;entryDy=0;endArrow=oval;endFill=1;" edge="1" parent="1" source="WIrva2gLRy929x_mKBgo-85" target="WIrva2gLRy929x_mKBgo-93">
          <mxGeometry relative="1" as="geometry" />
        </mxCell>
        <mxCell id="WIrva2gLRy929x_mKBgo-112" style="edgeStyle=orthogonalEdgeStyle;rounded=0;orthogonalLoop=1;jettySize=auto;html=1;exitX=0.5;exitY=1;exitDx=0;exitDy=0;endArrow=oval;endFill=1;" edge="1" parent="1" source="WIrva2gLRy929x_mKBgo-78">
          <mxGeometry relative="1" as="geometry">
            <mxPoint x="660" y="440" as="targetPoint" />
          </mxGeometry>
        </mxCell>
      </root>
    </mxGraphModel>
  </diagram>
</mxfile>
